# xmcd
#
# Track frame offsets: 
#        150
#        18469
#        34503
#        58673
#        82703
#        104142
#        120427
#        138300
#        160464
#        181792
#        200389
#        220769
#        242125
#        260137
#        276979
#        300313
#
# Disc length: 4252 seconds
#
# Revision: 0
# Processed by: cddbd v1.5.1PL0 Copyright (c) Steve Scherf et al.
# Submitted via: ExactAudioCopy v0.95a5
#
DISCID=db109a10
DTITLE=莫文蔚 - I SAY
DYEAR=1998
DGENRE=Pop
TTITLE0=I SAY
TTITLE1=开水与白面包
TTITLE2=真的吗
TTITLE3=坚强的理由
TTITLE4=爱情
TTITLE5=我不耐烦
TTITLE6=LET'S FALL IN LOVE
TTITLE7=SLOWLY
TTITLE8=JUST SAY GOOD-BYE
TTITLE9=是非题
TTITLE10=边界饭店
TTITLE11=爱自己
TTITLE12=他不爱我
TTITLE13=想一个男生
TTITLE14=午夜前的十分钟
TTITLE15=电台情歌
EXTD=
EXTT0=
EXTT1=
EXTT2=
EXTT3=
EXTT4=
EXTT5=
EXTT6=
EXTT7=
EXTT8=
EXTT9=
EXTT10=
EXTT11=
EXTT12=
EXTT13=
EXTT14=
EXTT15=
PLAYORDER=
